<svg width="312" height="44" viewBox="0 0 312 44" fill="none" xmlns="http://www.w3.org/2000/svg">
<path d="M37.0474 20.1038L33.5498 17.0303C34.0408 16.3803 34.5195 15.6941 34.9812 14.9596C35.1964 14.6172 35.2668 14.2034 35.1769 13.8091C35.087 13.4149 34.8441 13.0725 34.5018 12.8573C34.1594 12.6421 33.7456 12.5717 33.3513 12.6617C32.9571 12.7516 32.6147 12.9944 32.3995 13.3368C28.8235 19.0227 24.4938 21.6743 18.7748 21.6743C13.0559 21.6743 8.72458 19.025 5.1486 13.3368C5.04205 13.1673 4.90315 13.0204 4.73983 12.9046C4.57652 12.7887 4.39198 12.7062 4.19677 12.6617C4.00156 12.6171 3.79949 12.6115 3.6021 12.6451C3.40471 12.6786 3.21587 12.7508 3.04635 12.8573C2.87683 12.9639 2.72996 13.1028 2.61412 13.2661C2.49828 13.4294 2.41575 13.6139 2.37122 13.8091C2.3267 14.0044 2.32107 14.2064 2.35464 14.4038C2.38821 14.6012 2.46033 14.7901 2.56689 14.9596C3.02791 15.6941 3.50737 16.3803 3.99835 17.0303L0.500744 20.1038C0.204282 20.3725 0.025328 20.7469 0.00248822 21.1464C-0.0203516 21.5458 0.114753 21.9382 0.378658 22.2389C0.642564 22.5396 1.01411 22.7245 1.41313 22.7537C1.81216 22.783 2.20668 22.6541 2.51157 22.3951L5.98074 19.35C6.99505 20.3933 8.127 21.3154 9.35388 22.0977L7.25086 26.3422C7.16196 26.5216 7.10927 26.7167 7.0958 26.9165C7.08232 27.1163 7.10833 27.3167 7.17233 27.5064C7.23633 27.6962 7.33707 27.8714 7.4688 28.0222C7.60053 28.173 7.76067 28.2964 7.94008 28.3853C8.11948 28.4742 8.31464 28.5269 8.51441 28.5403C8.71418 28.5538 8.91465 28.5278 9.10437 28.4638C9.29408 28.3998 9.46934 28.299 9.62013 28.1673C9.77091 28.0356 9.89428 27.8754 9.98317 27.696L12.0678 23.4884C13.7196 24.1424 15.4621 24.5386 17.2343 24.6633L17.2757 29.2612C17.2794 29.6631 17.4416 30.0473 17.7271 30.3302C18.0126 30.6131 18.3983 30.7718 18.8002 30.7718H18.814C19.0142 30.7702 19.2121 30.7292 19.3964 30.6511C19.5807 30.573 19.7477 30.4593 19.8881 30.3166C20.0285 30.1739 20.1393 30.0049 20.2144 29.8193C20.2894 29.6338 20.3271 29.4352 20.3254 29.2351L20.2847 24.6671C22.0664 24.5448 23.8185 24.1477 25.4788 23.49L27.5634 27.6976C27.743 28.0599 28.0591 28.3361 28.4422 28.4653C28.8254 28.5946 29.2442 28.5663 29.6065 28.3868C29.9688 28.2073 30.245 27.8912 30.3743 27.508C30.5035 27.1248 30.4753 26.706 30.2957 26.3437L28.1927 22.0992C29.4196 21.317 30.5516 20.3949 31.5658 19.3516L35.035 22.3966C35.3389 22.6634 35.7362 22.7985 36.1397 22.7722C36.5432 22.746 36.9197 22.5606 37.1865 22.2568C37.4532 21.9529 37.5883 21.5556 37.5621 21.1521C37.5359 20.7486 37.3504 20.3721 37.0466 20.1053" fill="black"/>
<path d="M57.9908 27.2811H63.3978C64.2476 27.2213 65.0426 26.8399 65.6211 26.2145C66.1995 25.5891 66.5178 24.7668 66.5112 23.9149C66.5112 22.2952 65.1435 20.5287 63.3978 20.5287H57.9908V27.2811ZM57.9908 15.1002H62.2829C62.6803 15.1264 63.0788 15.0713 63.4541 14.9383C63.8295 14.8052 64.1738 14.5971 64.4659 14.3265C64.7581 14.0559 64.992 13.7285 65.1534 13.3645C65.3147 13.0004 65.4002 12.6073 65.4045 12.2091C65.4088 11.8109 65.3318 11.416 65.1783 11.0485C65.0248 10.6811 64.798 10.3488 64.5117 10.072C64.2255 9.79514 63.8858 9.57959 63.5134 9.4385C63.141 9.29741 62.7437 9.23375 62.3459 9.25138H57.9908V15.1002ZM50.1857 4.18092C50.1662 4.05953 50.1755 3.93525 50.2127 3.81806C50.2498 3.70086 50.3139 3.594 50.3998 3.50602C50.4857 3.41805 50.591 3.3514 50.7072 3.31142C50.8235 3.27144 50.9475 3.25924 51.0694 3.27578H64.4704C66.7692 3.29362 68.9679 4.21903 70.5875 5.85045C72.2071 7.48187 73.1165 9.68715 73.1176 11.986C73.1614 13.867 72.5181 15.6994 71.3082 17.1402C72.2909 18.039 73.0782 19.1305 73.6211 20.3466C74.164 21.5627 74.4508 22.8775 74.4638 24.2092C74.5691 28.9646 70.277 33.4035 65.6491 33.2759H51.0694C50.9493 33.2932 50.8269 33.2822 50.7118 33.2439C50.5968 33.2055 50.4922 33.1409 50.4065 33.0552C50.3207 32.9694 50.2561 32.8649 50.2178 32.7498C50.1795 32.6347 50.1685 32.5124 50.1857 32.3923V4.18092Z" fill="black"/>
<path d="M84.8498 17.098H95.0537C93.9595 14.7206 92.1508 13.3745 89.815 13.3745C87.6274 13.3745 85.7756 14.9112 84.8505 17.098M96.8009 24.8185C96.9153 24.8186 97.028 24.8452 97.1303 24.8962C97.2326 24.9473 97.3216 25.0214 97.3903 25.1128L99.9774 28.6896C100.162 28.8928 100.273 29.1519 100.293 29.4257C100.286 29.5511 100.25 29.6732 100.188 29.7825C100.126 29.8918 100.04 29.9856 99.9359 30.0565C98.5772 31.3122 96.9824 32.2851 95.2442 32.9187C93.636 33.449 91.9517 33.7119 90.2583 33.697C87.9695 33.7015 85.7225 33.0835 83.7579 31.909C81.7499 30.7416 80.0707 29.0841 78.8772 27.0914C77.6664 25.101 77.033 22.8131 77.0478 20.4834C76.9926 18.7511 77.2895 17.0255 77.9206 15.4113C78.5517 13.797 79.5038 12.3277 80.7193 11.0921C81.9348 9.85654 83.3884 8.88053 84.9921 8.22312C86.5958 7.56572 88.3163 7.2406 90.0493 7.26747C91.9423 7.29892 93.8015 7.77451 95.477 8.65592C97.3846 9.67113 98.9888 11.1739 100.126 13.011C101.453 15.2088 102.111 17.7452 102.02 20.3105C101.957 22.5196 101.347 22.8146 99.0115 22.8561H84.4494C84.7704 24.138 85.5133 25.2746 86.5586 26.0829C87.6039 26.8913 88.8908 27.3245 90.2122 27.3127C91.6782 27.3918 93.1384 27.0732 94.4382 26.3906C94.9049 26.1036 95.3481 25.7802 95.7637 25.4233C95.9942 25.2335 96.1632 25.0859 96.2692 25.0022C96.416 24.8784 96.6021 24.8111 96.794 24.8124" fill="black"/>
<path d="M117.369 14.069C116.552 14.0845 115.746 14.2626 114.998 14.5928C114.251 14.923 113.576 15.3988 113.014 15.9924C112.452 16.586 112.014 17.2856 111.725 18.0503C111.436 18.815 111.302 19.6296 111.332 20.4465C111.292 21.266 111.418 22.0851 111.703 22.8546C111.988 23.624 112.426 24.3278 112.99 24.9236C113.554 25.5194 114.233 25.9949 114.985 26.3215C115.738 26.6481 116.549 26.819 117.369 26.824C119.028 26.7758 120.603 26.083 121.759 24.8928C122.915 23.7025 123.562 22.1085 123.562 20.4492C123.562 18.7898 122.915 17.1958 121.759 16.0056C120.603 14.8154 119.028 14.1226 117.369 14.0744M131.255 32.3723C131.274 32.4955 131.264 32.6213 131.225 32.7397C131.186 32.8581 131.12 32.9656 131.032 33.0537C130.944 33.1417 130.836 33.2078 130.718 33.2465C130.599 33.2853 130.473 33.2956 130.35 33.2767H125.74C125.004 33.2767 124.688 32.5191 124.246 31.3619L123.973 30.6466C123.084 31.6066 122.007 32.373 120.809 32.8979C119.611 33.4229 118.317 33.6952 117.009 33.6978C114.756 33.6973 112.542 33.1114 110.583 31.9974C108.625 30.8835 106.99 29.2797 105.838 27.3434C104.622 25.2655 104.003 22.8925 104.05 20.4857C104.027 18.1493 104.622 15.8484 105.775 13.8162C106.883 11.8289 108.494 10.1675 110.446 8.99859C112.43 7.81855 114.701 7.20715 117.009 7.23133C118.411 7.2069 119.8 7.50099 121.072 8.0914C122.344 8.68181 123.465 9.55316 124.352 10.6398L125.151 8.41155C125.404 7.67545 125.53 7.50718 126.055 7.50718H130.347C130.47 7.48843 130.596 7.4989 130.714 7.53771C130.833 7.57651 130.94 7.64258 131.028 7.7306C131.116 7.81861 131.183 7.92608 131.221 8.04436C131.26 8.16265 131.271 8.28843 131.252 8.41155V32.3723H131.255Z" fill="black"/>
<path d="M152.6 8.45149C152.579 7.79991 152.958 7.50486 153.567 7.50486H159.418C159.547 7.4865 159.678 7.49832 159.801 7.5394C159.924 7.58048 160.036 7.64968 160.128 7.74153C160.22 7.83338 160.289 7.94535 160.33 8.06857C160.371 8.1918 160.383 8.3229 160.365 8.45149V32.3308C160.383 32.4594 160.371 32.5905 160.33 32.7137C160.289 32.8369 160.22 32.9489 160.128 33.0408C160.036 33.1326 159.924 33.2018 159.801 33.2429C159.678 33.284 159.547 33.2958 159.418 33.2774H155.673C155.342 33.2563 155.025 33.1339 154.765 32.9268C154.506 32.7197 154.316 32.4379 154.222 32.1195L153.632 29.869C152.695 31.1117 151.47 32.1091 150.064 32.7758C148.657 33.4426 147.109 33.7589 145.554 33.6977C144.084 33.6828 142.635 33.3529 141.304 32.7304C139.742 31.9844 138.443 30.7813 137.581 29.2804C136.449 27.2541 135.91 24.9505 136.024 22.6325V8.43074C136.008 8.3055 136.021 8.17826 136.062 8.05882C136.103 7.93938 136.17 7.83093 136.26 7.74184C136.349 7.65275 136.458 7.58541 136.578 7.54498C136.697 7.50456 136.825 7.49213 136.95 7.50869H142.668C142.793 7.49213 142.92 7.50456 143.04 7.54498C143.16 7.58541 143.268 7.65275 143.358 7.74184C143.447 7.83093 143.515 7.93938 143.556 8.05882C143.597 8.17826 143.61 8.3055 143.594 8.43074V22.0846C143.595 22.6825 143.716 23.2741 143.952 23.8236C144.187 24.3732 144.532 24.8694 144.964 25.2823C145.397 25.6952 145.908 26.0163 146.468 26.2261C147.028 26.436 147.624 26.5304 148.222 26.5035C148.806 26.5143 149.387 26.4059 149.928 26.1847C150.47 25.9636 150.96 25.6345 151.37 25.2174C151.78 24.8003 152.101 24.3041 152.312 23.759C152.524 23.2139 152.622 22.6314 152.601 22.047V8.45149H152.6Z" fill="black"/>
<path d="M175.342 32.3939C175.359 32.5157 175.346 32.6397 175.306 32.756C175.266 32.8722 175.2 32.9775 175.112 33.0634C175.024 33.1493 174.917 33.2134 174.8 33.2506C174.683 33.2877 174.558 33.2969 174.437 33.2775H168.399C168.279 33.2945 168.157 33.2834 168.042 33.2451C167.927 33.2067 167.822 33.1421 167.737 33.0564C167.651 32.9707 167.586 32.8662 167.548 32.7512C167.51 32.6362 167.498 32.5139 167.515 32.3939V14.6799H164.696C164.585 14.6957 164.471 14.6853 164.364 14.6496C164.258 14.6139 164.16 14.5538 164.081 14.4742C164.001 14.3945 163.941 14.2974 163.906 14.1905C163.87 14.0837 163.86 13.97 163.876 13.8585V8.41001C163.867 8.30105 163.883 8.19159 163.922 8.08935C163.96 7.98711 164.021 7.89459 164.099 7.81831C164.177 7.74203 164.271 7.68385 164.375 7.64788C164.478 7.61192 164.588 7.59904 164.696 7.61015H167.515V3.46557C167.515 2.85549 167.726 2.51894 168.504 2.26692L173.785 0.520434C173.946 0.458644 174.118 0.429887 174.29 0.435901C174.9 0.435901 175.343 0.877722 175.343 1.69911V7.61015H178.73C178.836 7.6064 178.942 7.62452 179.04 7.66338C179.139 7.70225 179.229 7.76102 179.304 7.83606C179.379 7.9111 179.438 8.00078 179.476 8.09953C179.515 8.19827 179.533 8.30396 179.53 8.41001V13.8585C179.546 13.9683 179.537 14.0805 179.503 14.1862C179.469 14.292 179.411 14.3884 179.334 14.468C179.256 14.5475 179.161 14.6081 179.057 14.6448C178.952 14.6816 178.84 14.6936 178.73 14.6799H175.343V32.3939H175.342Z" fill="black"/>
<path d="M195.852 42.5548C195.768 42.8129 195.6 43.0359 195.376 43.1888C195.151 43.3417 194.882 43.416 194.611 43.4H189.604C188.759 43.4 188.216 43.0842 188.216 42.4111C188.224 42.1435 188.281 41.8797 188.384 41.6327L191.688 33.1953L181.99 9.06469C181.895 8.86032 181.845 8.63828 181.842 8.41312C181.841 8.28272 181.868 8.15359 181.921 8.03445C181.974 7.91531 182.052 7.80895 182.15 7.7226C182.247 7.63625 182.363 7.57191 182.487 7.53396C182.612 7.496 182.744 7.48531 182.873 7.50261H188.51C188.786 7.50875 189.052 7.60446 189.268 7.77525C189.485 7.94603 189.64 8.1826 189.71 8.44923L195.473 24.8385L201.132 8.387C201.195 8.12177 201.351 7.88758 201.57 7.72577C201.79 7.56395 202.06 7.48492 202.332 7.50261H208.37C208.98 7.50261 209.292 7.75462 209.292 8.25944C209.293 8.46937 209.25 8.6772 209.166 8.86953L195.852 42.5548Z" fill="black"/>
<path d="M251.402 32.3885C251.419 32.5092 251.408 32.6322 251.369 32.7478C251.331 32.8634 251.266 32.9684 251.18 33.0546C251.094 33.1408 250.989 33.2057 250.873 33.2442C250.757 33.2828 250.634 33.2939 250.514 33.2767H248.434C247.802 33.2767 247.485 32.9807 247.485 32.3885V0.910008C247.48 0.789757 247.501 0.669837 247.546 0.558347C247.591 0.446857 247.66 0.346398 247.748 0.263808C247.916 0.104359 248.141 0.0172391 248.373 0.0210197H250.473C250.598 0.0153041 250.722 0.0357255 250.839 0.0809781C250.955 0.126231 251.061 0.1953 251.149 0.283786C251.23 0.366142 251.295 0.463849 251.338 0.57122C251.381 0.678592 251.403 0.793483 251.401 0.909234V32.3877L251.402 32.3885Z" fill="black"/>
<path d="M261.23 32.3885C261.247 32.5091 261.236 32.6321 261.198 32.7477C261.159 32.8633 261.094 32.9684 261.008 33.0546C260.922 33.1407 260.817 33.2057 260.701 33.2442C260.586 33.2828 260.463 33.2939 260.342 33.2767H258.262C257.629 33.2767 257.313 32.9806 257.313 32.3885V8.52298C257.308 8.40272 257.329 8.28277 257.374 8.17127C257.419 8.05977 257.488 7.95934 257.576 7.87678C257.745 7.71768 257.969 7.63083 258.201 7.63474H260.301C260.426 7.62897 260.551 7.6493 260.667 7.69442C260.783 7.73953 260.889 7.80845 260.977 7.89676C261.059 7.97913 261.123 8.07692 261.167 8.18445C261.21 8.29198 261.231 8.40708 261.229 8.52298V32.3892L261.23 32.3885ZM261.23 2.96997C261.247 3.09062 261.236 3.21362 261.198 3.32923C261.159 3.44484 261.094 3.5499 261.008 3.63608C260.922 3.72225 260.817 3.78717 260.701 3.82573C260.586 3.86429 260.463 3.87541 260.342 3.85821H258.262C257.629 3.85821 257.313 3.56212 257.313 2.96997V0.889998C257.308 0.769729 257.329 0.649757 257.374 0.538243C257.419 0.42673 257.488 0.326295 257.576 0.243798C257.745 0.0843493 257.969 -0.0027708 258.201 0.00100978H260.301C260.425 -0.00481192 260.549 0.014584 260.665 0.0580371C260.781 0.10149 260.888 0.16808 260.977 0.253787C261.061 0.336844 261.126 0.436099 261.169 0.545395C261.213 0.654691 261.233 0.771702 261.229 0.889224V2.9692L261.23 2.96997Z" fill="black"/>
<path d="M284.297 27.4417C284.391 27.3603 284.496 27.2765 284.61 27.1889C284.719 27.104 284.842 27.039 284.974 26.9969C285.098 26.9558 285.233 26.9558 285.358 26.9969C285.518 27.063 285.655 27.1753 285.752 27.3196C286.021 27.6838 286.239 27.9801 286.407 28.2086C286.575 28.437 286.713 28.6186 286.821 28.7533C286.929 28.9016 287.009 29.0092 287.063 29.0768C287.128 29.1801 287.185 29.288 287.235 29.3995C287.282 29.5111 287.293 29.635 287.265 29.753C287.225 29.9079 287.153 30.0525 287.053 30.1771C286.897 30.3721 286.716 30.5454 286.515 30.6927C285.941 31.1468 285.337 31.5617 284.708 31.9344C284.078 32.3063 283.42 32.627 282.739 32.8933C282.036 33.1673 281.309 33.3769 280.568 33.5195C278.613 33.8847 276.599 33.798 274.682 33.266C273.575 32.9546 272.513 32.5002 271.523 31.9144C269.547 30.7459 267.892 29.1047 266.707 27.1382C266.112 26.1503 265.65 25.0879 265.334 23.9787C264.688 21.6878 264.688 19.2628 265.334 16.972C265.65 15.8629 266.112 14.8005 266.707 13.8124C267.891 11.8461 269.546 10.2053 271.523 9.03781C272.512 8.45168 273.575 7.99707 274.682 7.68547C275.812 7.3674 276.982 7.20759 278.156 7.21061C278.911 7.21071 279.664 7.28171 280.406 7.42268C281.141 7.56044 281.863 7.75623 282.566 8.0082C283.241 8.24934 283.897 8.54324 284.526 8.8872C285.105 9.20222 285.655 9.56676 286.171 9.97674C286.265 10.0582 286.376 10.1491 286.504 10.2495C286.629 10.3471 286.738 10.4629 286.828 10.593C286.914 10.7203 286.973 10.8646 287 11.0163C287.023 11.1879 286.988 11.3625 286.899 11.5112L285.425 13.4498C285.074 13.9067 284.671 13.8998 284.214 13.429C283.837 13.0418 283.417 12.6999 282.962 12.4102C281.987 11.7848 280.906 11.3421 279.772 11.1039C279.207 10.9849 278.632 10.9244 278.055 10.9234C276.868 10.9239 275.697 11.1863 274.623 11.6917C273.527 12.1982 272.534 12.9035 271.695 13.7717C270.839 14.6584 270.148 15.6909 269.655 16.8206C269.151 17.9745 268.89 19.2199 268.888 20.4793C268.886 21.7386 269.144 22.9848 269.645 24.1401C270.132 25.2618 270.821 26.2844 271.678 27.1567C272.522 28.0159 273.518 28.711 274.616 29.2067C275.702 29.706 276.883 29.9642 278.078 29.9635C278.754 29.9707 279.428 29.8996 280.087 29.7515C280.652 29.6229 281.201 29.4332 281.724 29.1859C282.202 28.958 282.658 28.6874 283.086 28.3776C283.503 28.0749 283.907 27.7619 284.297 27.4387" fill="black"/>
<path d="M291.243 0.890025C291.238 0.659675 291.321 0.435972 291.474 0.263804C291.557 0.174551 291.659 0.10479 291.772 0.0594953C291.886 0.0142009 292.007 -0.00551108 292.129 0.00178803H294.229C294.467 -8.64832e-06 294.697 0.0865077 294.875 0.2446C294.968 0.323866 295.042 0.423212 295.091 0.535153C295.14 0.647093 295.163 0.768708 295.158 0.890799V19.2648L305.657 8.1388C305.809 7.99836 305.975 7.87328 306.152 7.76538C306.339 7.6593 306.552 7.60617 306.767 7.61169H309.835C310.015 7.59685 310.194 7.64703 310.34 7.75309C310.391 7.79483 310.432 7.8473 310.459 7.9067C310.487 7.96611 310.501 8.03096 310.501 8.09654C310.506 8.33756 310.427 8.5729 310.279 8.76272L300.444 18.959L311.55 32.1234H311.51C311.634 32.2406 311.722 32.3914 311.762 32.5575C311.79 32.6734 311.807 32.7918 311.813 32.911C311.82 32.9671 311.812 33.0243 311.789 33.0761C311.766 33.1278 311.729 33.172 311.682 33.2037C311.531 33.2619 311.369 33.2861 311.207 33.2744H307.735C307.548 33.2746 307.365 33.2184 307.21 33.1131C307.031 32.9852 306.892 32.8105 306.806 32.6082L297.781 21.6644L295.156 24.3698V32.3854C295.156 32.9776 294.846 33.2736 294.228 33.2736H292.135C292.014 33.2908 291.891 33.2797 291.775 33.2412C291.66 33.2026 291.555 33.1377 291.468 33.0515C291.382 32.9653 291.317 32.8603 291.279 32.7447C291.24 32.6291 291.229 32.5061 291.246 32.3854V0.890025H291.243Z" fill="black"/>
<path d="M233.909 27.4095C233.061 28.0029 232.135 28.4759 231.158 28.8148C230.214 29.1423 229.233 29.3489 228.238 29.4295C226.264 29.5859 224.283 29.2274 222.488 28.3892C221.584 27.9662 220.737 27.4302 219.968 26.794C218.375 25.4655 217.171 23.7303 216.484 21.7727C215.825 19.8947 215.666 17.8774 216.023 15.9193C216.198 14.9488 216.498 14.005 216.915 13.1117C217.338 12.2076 217.874 11.3607 218.51 10.5915C220.169 8.60351 222.45 7.23358 224.984 6.70352C227.911 6.10006 230.959 6.65062 233.49 8.24026C235.678 9.62444 237.335 11.7066 238.192 14.1498C238.52 15.0932 238.726 16.0743 238.807 17.0696C238.96 19.0408 238.605 21.0185 237.775 22.8131C237.355 23.719 236.819 24.5664 236.18 25.3341C235.522 26.1266 234.757 26.8247 233.909 27.4087M242.745 36.6368L237.68 29.4457C238.26 28.8638 238.82 28.2537 239.362 27.6154C239.892 26.9937 240.367 26.3268 240.782 25.6223C241.489 24.3816 242.021 23.0488 242.362 21.6621C242.704 20.2806 242.856 18.8587 242.813 17.4361C242.767 16.0003 242.521 14.5779 242.082 13.21C241.626 11.7895 240.959 10.4457 240.103 9.22377C239.314 8.07524 238.37 7.04101 237.298 6.1503C236.263 5.2908 235.124 4.56534 233.907 3.99116C232.709 3.42727 231.442 3.02473 230.138 2.79406C228.838 2.56313 227.514 2.49448 226.197 2.58968C224.146 2.75108 222.148 3.32091 220.321 4.2657C218.494 5.21049 216.873 6.51117 215.556 8.0912C214.702 9.12302 213.982 10.259 213.414 11.472C212.854 12.6694 212.454 13.9353 212.224 15.237C211.993 16.54 211.926 17.8668 212.026 19.1864C212.198 21.4146 212.852 23.5788 213.944 25.5288C215.035 27.4787 216.538 29.1677 218.349 30.4784C220.159 31.7891 222.232 32.6901 224.425 33.119C226.619 33.5478 228.879 33.4941 231.049 32.9617C231.425 32.8969 231.794 32.8013 232.154 32.6759C232.534 32.5405 232.899 32.3653 233.242 32.1534L234.477 31.6662L239.518 38.8282C239.571 38.9409 239.65 39.0397 239.748 39.1167C239.846 39.1936 239.961 39.2467 240.083 39.2716C240.205 39.2965 240.332 39.2926 240.452 39.2601C240.573 39.2277 240.684 39.1677 240.777 39.0848L242.454 37.9215C242.565 37.8644 242.663 37.7834 242.74 37.6843C242.817 37.5852 242.871 37.4704 242.899 37.348C242.927 37.2256 242.927 37.0986 242.901 36.976C242.874 36.8534 242.821 36.7381 242.745 36.6383" fill="black"/>
</svg>
